PathFileType	4	(X/Y/Z)	/Users/itak/Documents/Research/Walk-IL/dataset/trc/00152_00007.trc
DataRate	CameraRate	NumFrames	NumMarkers	Units	OrigDataRate	OrigDataStartFrame	OrigNumFrames
100.000000	100.000000	4	53	mm	100.000000	0	537
Frame#	Time	RPSI			LPSI			L3			STRN			T10			C7			CLAV			RBAK			LBAK			LSHO			LUPA			LAEL			LAOL			LWTS			LWPS			LFRA			LIFD			LHPS			LHTS			RSHO			RUPA			RAEL			RAOL			RWTS			RWPS			RFRA			RIFD			RHTS			RHPS			RBHD			LFHD			RFHD			LBHD			LHIP			RHIP			RASI			LASI			LKNE			LTHI			LANK			LTIP			LTOE			LMT1			LMT5			LHEE			RKNE			RTHI			RANK			RTIP			RTOE			RMT1			RMT5			RHEE			
		X1	Y1	Z1	X2	Y2	Z2	X3	Y3	Z3	X4	Y4	Z4	X5	Y5	Z5	X6	Y6	Z6	X7	Y7	Z7	X8	Y8	Z8	X9	Y9	Z9	X10	Y10	Z10	X11	Y11	Z11	X12	Y12	Z12	X13	Y13	Z13	X14	Y14	Z14	X15	Y15	Z15	X16	Y16	Z16	X17	Y17	Z17	X18	Y18	Z18	X19	Y19	Z19	X20	Y20	Z20	X21	Y21	Z21	X22	Y22	Z22	X23	Y23	Z23	X24	Y24	Z24	X25	Y25	Z25	X26	Y26	Z26	X27	Y27	Z27	X28	Y28	Z28	X29	Y29	Z29	X30	Y30	Z30	X31	Y31	Z31	X32	Y32	Z32	X33	Y33	Z33	X34	Y34	Z34	X35	Y35	Z35	X36	Y36	Z36	X37	Y37	Z37	X38	Y38	Z38	X39	Y39	Z39	X40	Y40	Z40	X41	Y41	Z41	X42	Y42	Z42	X43	Y43	Z43	X44	Y44	Z44	X45	Y45	Z45	X46	Y46	Z46	X47	Y47	Z47	X48	Y48	Z48	X49	Y49	Z49	X50	Y50	Z50	X51	Y51	Z51	X52	Y52	Z52	X53	Y53	Z53	

1	0	-1308.536010742188	1124.42431640625	-493.533447265625	-1312.232299804688	1125.064575195312	-627.8954467773438	-1316.8818359375	1155.63232421875	-562.6287841796875	-1107.796508789062	1356.477661132812	-570.9968872070312	-1359.890380859375	1301.60986328125	-564.1251220703125	-1334.575927734375	1595.127807617188	-581.5713500976562	-1148.698608398438	1490.10986328125	-575.6056518554688	-1383.31884765625	1410.219116210938	-490.0428771972656	-1342.469970703125	1573.821044921875	-683.7755737304688	-1256.467041015625	1560.235107421875	-752.4791870117188	-1273.223999023438	1428.397216796875	-821.8903198242188	-1245.68115234375	1209.237670898438	-844.6326293945312	-1311.937255859375	1193.235473632812	-789.1478271484375	-1128.826904296875	960.710693359375	-795.7820434570312	-1206.730712890625	928.382568359375	-825.7737426757812	-1221.100830078125	1094.296630859375	-847.5691528320312	-1103.175170898438	767.8226318359375	-771.775634765625	-1170.901977539062	856.1510009765625	-823.9824829101562	-1106.730224609375	873.7662353515625	-804.9760131835938	-1276.128173828125	1580.010375976562	-401.4020690917969	-1290.408569335938	1507.03466796875	-336.3524475097656	-1284.595947265625	1210.91748046875	-311.7915954589844	-1292.353271484375	1208.768432617188	-408.0147705078125	-1130.978759765625	974.3327026367188	-326.7908020019531	-1203.390869140625	955.1821899414062	-291.8572387695312	-1257.2568359375	1139.431762695312	-295.6903076171875	-1098.652221679688	781.2020263671875	-340.9508666992188	-1096.998046875	867.984619140625	-320.3314208984375	-1162.595458984375	857.401123046875	-287.1475830078125	-1305.973876953125	1763.569091796875	-508.1188354492188	-1151.747680664062	1842.498168945312	-644.2224731445312	-1151.185913085938	1849.77001953125	-514.781494140625	-1314.298950195312	1758.900756835938	-643.3185424804688	-1225.299072265625	1033.939575195312	-737.3325805664062	-1180.708862304688	1028.318115234375	-379.8577880859375	-1098.353759765625	1100.605834960938	-435.7436218261719	-1115.90966796875	1096.851684570312	-700.77001953125	-1229.779418945312	532.9794311523438	-702.3949584960938	-1242.026611328125	679.6281127929688	-730.4537963867188	-1360.187377929688	36.28547668457031	-680.5687255859375	-1342.489624023438	291.9409484863281	-718.3475952148438	-1123.18701171875	32.85900115966797	-633.2499389648438	-1205.523559570312	40.95175933837891	-599.2442626953125	-1236.068603515625	32.51446914672852	-714.8355102539062	-1424.322387695312	38.57900238037109	-613.7879028320312	-1224.54345703125	535.74755859375	-413.211181640625	-1176.111450195312	813.059326171875	-387.9338989257812	-1352.480834960938	30.72488975524902	-427.2078857421875	-1260.52587890625	405.6962890625	-402.098876953125	-1121.955688476562	39.83031845092773	-486.2359619140625	-1184.581420898438	29.32513046264648	-526.5040283203125	-1218.758422851562	38.14847946166992	-410.3761291503906	-1412.088989257812	32.94912338256836	-473.6896057128906	
2	0.01	-1308.608520507812	1124.405517578125	-493.5916137695312	-1312.221069335938	1124.99560546875	-627.9554443359375	-1316.970581054688	1155.591064453125	-562.7354125976562	-1107.846801757812	1356.528564453125	-570.93017578125	-1360.041137695312	1301.548828125	-564.3370361328125	-1334.885131835938	1595.087280273438	-581.8341674804688	-1148.832885742188	1490.148315429688	-575.5737915039062	-1383.563354492188	1410.13720703125	-490.3067016601562	-1342.57373046875	1573.763916015625	-683.9685668945312	-1256.484130859375	1560.24658203125	-752.5770874023438	-1273.078979492188	1428.381469726562	-822.0176391601562	-1245.450317382812	1209.232543945312	-844.707763671875	-1311.783081054688	1193.235229492188	-789.2609252929688	-1128.734130859375	960.6431274414062	-795.8798828125	-1206.667846679688	928.36328125	-825.89111328125	-1220.922607421875	1094.287963867188	-847.648193359375	-1103.266845703125	767.7596435546875	-771.9387817382812	-1170.907592773438	856.1150512695312	-824.11572265625	-1106.718383789062	873.6553344726562	-805.0726928710938	-1276.587158203125	1579.949462890625	-401.5541076660156	-1290.926025390625	1506.924438476562	-336.4907531738281	-1284.904296875	1210.797607421875	-312.0513000488281	-1292.53515625	1208.705078125	-408.3070373535156	-1130.767211914062	974.5569458007812	-326.9896545410156	-1203.2099609375	955.1932373046875	-292.1835021972656	-1257.469848632812	1139.32470703125	-295.9682312011719	-1097.864990234375	781.5374755859375	-341.2732849121094	-1096.485595703125	868.3084106445312	-320.5781860351562	-1162.171020507812	857.4796142578125	-287.5269470214844	-1306.128662109375	1763.612670898438	-508.1859741210938	-1151.650634765625	1842.403198242188	-644.0687255859375	-1151.265258789062	1849.589233398438	-514.60791015625	-1314.407470703125	1759.079223632812	-643.4524536132812	-1225.104370117188	1033.9130859375	-737.3050537109375	-1180.94873046875	1028.360107421875	-379.8150024414062	-1098.4521484375	1100.643798828125	-435.636474609375	-1115.838745117188	1096.853515625	-700.689208984375	-1229.621215820312	532.9537353515625	-702.34716796875	-1241.919677734375	679.6142578125	-730.4095458984375	-1360.172241210938	36.26962280273438	-680.582275390625	-1342.426025390625	291.9289245605469	-718.355712890625	-1123.188354492188	32.85489273071289	-633.240478515625	-1205.526000976562	40.95134353637695	-599.2438354492188	-1236.064086914062	32.50975799560547	-714.8321533203125	-1424.326416015625	38.58248519897461	-613.8128051757812	-1224.509643554688	535.7259521484375	-413.2005310058594	-1176.147583007812	813.10009765625	-387.8876953125	-1352.483520507812	30.72251892089844	-427.2101440429688	-1260.500122070312	405.6807861328125	-402.0938720703125	-1121.958251953125	39.83263778686523	-486.2499084472656	-1184.581298828125	29.34331321716309	-526.5077514648438	-1218.760864257812	38.14776992797852	-410.3773803710938	-1412.084350585938	32.92534637451172	-473.6981811523438	
3	0.02	-1308.702880859375	1124.3837890625	-493.6663513183594	-1312.227905273438	1124.917114257812	-628.036376953125	-1317.085571289062	1155.543579101562	-562.8707885742188	-1107.907592773438	1356.590576171875	-570.8485107421875	-1360.224731445312	1301.4765625	-564.5971069335938	-1335.24560546875	1595.026000976562	-582.1577758789062	-1148.99951171875	1490.19384765625	-575.538818359375	-1383.872680664062	1410.031005859375	-490.6406555175781	-1342.702270507812	1573.69677734375	-684.21923828125	-1256.500366210938	1560.263671875	-752.706298828125	-1272.899780273438	1428.364990234375	-822.181640625	-1245.1640625	1209.229125976562	-844.809326171875	-1311.586669921875	1193.237426757812	-789.41650390625	-1128.63671875	960.5542602539062	-795.9901733398438	-1206.612060546875	928.3370971679688	-826.0358276367188	-1220.695068359375	1094.279418945312	-847.7514038085938	-1103.379028320312	767.7147216796875	-772.1371459960938	-1170.927368164062	856.066162109375	-824.2747802734375	-1106.719116210938	873.51513671875	-805.1741333007812	-1277.141479492188	1579.878784179688	-401.7417602539062	-1291.558715820312	1506.794677734375	-336.6669311523438	-1285.300537109375	1210.651611328125	-312.3714294433594	-1292.790161132812	1208.629638671875	-408.6631774902344	-1130.5048828125	974.8516845703125	-327.24560546875	-1202.974853515625	955.2115478515625	-292.5927429199219	-1257.74560546875	1139.193359375	-296.3089599609375	-1096.903076171875	781.9537353515625	-341.6808471679688	-1095.871459960938	868.717529296875	-320.9019775390625	-1161.627563476562	857.58935546875	-287.9952087402344	-1306.32861328125	1763.664672851562	-508.2784729003906	-1151.52978515625	1842.291137695312	-643.8729858398438	-1151.358520507812	1849.366943359375	-514.3946533203125	-1314.526733398438	1759.2880859375	-643.6105346679688	-1224.860473632812	1033.880737304688	-737.2694091796875	-1181.23583984375	1028.406860351562	-379.7556762695312	-1098.572998046875	1100.692749023438	-435.5035705566406	-1115.744750976562	1096.856567382812	-700.58837890625	-1229.432006835938	532.9276733398438	-702.2874755859375	-1241.782348632812	679.5977783203125	-730.3525390625	-1360.155029296875	36.25149536132812	-680.59814453125	-1342.348266601562	291.9158325195312	-718.3649291992188	-1123.190307617188	32.8511962890625	-633.2297973632812	-1205.530151367188	40.9508171081543	-599.2423706054688	-1236.060791015625	32.50722503662109	-714.8292236328125	-1424.330932617188	38.58578109741211	-613.838623046875	-1224.458251953125	535.7059326171875	-413.1824340820312	-1176.201171875	813.1500854492188	-387.8255310058594	-1352.4892578125	30.71973419189453	-427.2137756347656	-1260.470703125	405.6606140136719	-402.0887756347656	-1121.959350585938	39.83656692504883	-486.2652282714844	-1184.579223632812	29.36172103881836	-526.509765625	-1218.763061523438	38.14710235595703	-410.3781433105469	-1412.08349609375	32.89961624145508	-473.7103881835938	
4	0.03	-1308.817138671875	1124.36083984375	-493.7561950683594	-1312.2529296875	1124.83544921875	-628.1357421875	-1317.22265625	1155.49462890625	-563.0298461914062	-1107.976806640625	1356.6591796875	-570.755615234375	-1360.430419921875	1301.398315429688	-564.8917846679688	-1335.627807617188	1594.94287109375	-582.5233764648438	-1149.190673828125	1490.243286132812	-575.5045776367188	-1384.232421875	1409.904907226562	-491.0312194824219	-1342.84814453125	1573.625122070312	-684.520751953125	-1256.512084960938	1560.286010742188	-752.864501953125	-1272.693481445312	1428.350341796875	-822.3778076171875	-1244.837280273438	1209.22802734375	-844.9357299804688	-1311.356323242188	1193.243286132812	-789.6140747070312	-1128.548950195312	960.4448852539062	-796.1021118164062	-1206.57275390625	928.303955078125	-826.2020263671875	-1220.427734375	1094.271484375	-847.8756713867188	-1103.497192382812	767.7052612304688	-772.34814453125	-1170.966918945312	856.0043334960938	-824.4478149414062	-1106.740234375	873.3516235351562	-805.2662353515625	-1277.75830078125	1579.803588867188	-401.9551696777344	-1292.273559570312	1506.655639648438	-336.87548828125	-1285.772705078125	1210.488037109375	-312.7363891601562	-1293.114990234375	1208.547485351562	-409.0615234375	-1130.206665039062	975.2074584960938	-327.5514526367188	-1202.6962890625	955.2386474609375	-293.0674133300781	-1258.074584960938	1139.045166015625	-296.6944274902344	-1095.81689453125	782.4320678710938	-342.16015625	-1095.197143554688	869.19384765625	-321.294677734375	-1160.9873046875	857.7303466796875	-288.5301818847656	-1306.568969726562	1763.720581054688	-508.3971862792969	-1151.39208984375	1842.170654296875	-643.6432495117188	-1151.4609375	1849.115112304688	-514.15234375	-1314.647705078125	1759.513305664062	-643.7838134765625	-1224.579711914062	1033.844482421875	-737.2275390625	-1181.5517578125	1028.454345703125	-379.6822509765625	-1098.711547851562	1100.751708984375	-435.350341796875	-1115.630737304688	1096.860473632812	-700.472900390625	-1229.222412109375	532.9049682617188	-702.2160034179688	-1241.619995117188	679.579345703125	-730.2852172851562	-1360.137817382812	36.23305892944336	-680.6144409179688	-1342.259765625	291.903076171875	-718.3744506835938	-1123.193115234375	32.84809875488281	-633.2186279296875	-1205.5361328125	40.94992446899414	-599.2395629882812	-1236.059692382812	32.50762939453125	-714.8272094726562	-1424.335327148438	38.58831787109375	-613.8626098632812	-1224.391723632812	535.6903076171875	-413.1565551757812	-1176.274780273438	813.2044067382812	-387.7478637695312	-1352.4970703125	30.71614074707031	-427.2180786132812	-1260.43994140625	405.6368408203125	-402.0841369628906	-1121.959594726562	39.84250640869141	-486.2790222167969	-1184.575317382812	29.378662109375	-526.5090942382812	-1218.765258789062	38.14645004272461	-410.3780517578125	-1412.0869140625	32.87392807006836	-473.7252502441406	
